<svg width="161" height="135" fill="none" xmlns="http://www.w3.org/2000/svg"><g clip-path="url(#a)"><path d="M59.7 30.273a3.328 3.328 0 0 1-.294-2.052l1.055-6.02a3.327 3.327 0 0 0-1.564-3.425l-5.245-3.15a3.324 3.324 0 0 1-1.354-1.563l-2.371-5.641a3.327 3.327 0 0 0-3.168-2.036l-6.115.185a3.324 3.324 0 0 1-1.984-.581l-5.044-3.464a3.322 3.322 0 0 0-3.765 0L24.808 5.99c-.583.4-1.278.603-1.985.581l-6.115-.185a3.325 3.325 0 0 0-3.167 2.036l-2.37 5.64a3.33 3.33 0 0 1-1.355 1.564l-5.245 3.15a3.327 3.327 0 0 0-1.564 3.426l1.058 6.023a3.32 3.32 0 0 1-.294 2.052l-2.71 5.486a3.326 3.326 0 0 0 .536 3.726l4.146 4.5c.479.52.78 1.18.858 1.882l.686 6.08a3.329 3.329 0 0 0 2.462 2.846l5.92 1.545a3.325 3.325 0 0 1 1.744 1.117l3.864 4.745a3.325 3.325 0 0 0 3.612 1.06l5.815-1.901a3.328 3.328 0 0 1 2.068 0l5.815 1.901a3.326 3.326 0 0 0 3.612-1.06l3.865-4.745a3.326 3.326 0 0 1 1.743-1.117l5.92-1.545a3.326 3.326 0 0 0 2.462-2.846l.686-6.08c.08-.702.38-1.361.86-1.881l4.144-4.5a3.326 3.326 0 0 0 .537-3.727l-2.716-5.49ZM31.734 55.876c-12.808 0-23.191-10.383-23.191-23.193 0-12.81 10.383-23.195 23.191-23.195s23.19 10.385 23.19 23.195-10.382 23.193-23.19 23.193Z" fill="#F3D3D5"/><path d="M31.734 56.594a23.905 23.905 0 0 1-23.45-19.242 23.914 23.914 0 0 1 14.294-26.757 23.904 23.904 0 0 1 29.028 8.8 23.913 23.913 0 0 1-2.966 30.192 23.75 23.75 0 0 1-16.906 7.007Zm0-46.388c-12.392 0-22.473 10.084-22.473 22.477s10.085 22.475 22.473 22.475c12.388 0 22.472-10.082 22.472-22.475s-10.08-22.477-22.472-22.477Z" fill="#1E243A"/><path d="M39.603 64.14a3.974 3.974 0 0 1-1.243-.196l-5.816-1.903a2.592 2.592 0 0 0-1.621 0l-5.815 1.903a4.067 4.067 0 0 1-4.392-1.29l-3.864-4.744a2.584 2.584 0 0 0-1.364-.877l-5.92-1.545a4.067 4.067 0 0 1-2.997-3.46l-.687-6.08a2.588 2.588 0 0 0-.673-1.475l-4.146-4.5a4.068 4.068 0 0 1-.652-4.532l2.71-5.486c.247-.497.328-1.06.231-1.605L2.3 22.322a4.068 4.068 0 0 1 1.903-4.164l5.244-3.15c.477-.286.85-.717 1.063-1.231l2.37-5.641a4.066 4.066 0 0 1 3.85-2.475l6.117.186a2.588 2.588 0 0 0 1.555-.457l5.044-3.463a4.065 4.065 0 0 1 4.577 0l5.044 3.463a2.599 2.599 0 0 0 1.556.457l6.115-.186a4.067 4.067 0 0 1 3.851 2.475l2.371 5.64c.213.514.585.946 1.062 1.232l5.245 3.15a4.069 4.069 0 0 1 1.902 4.164l-1.054 6.028a2.591 2.591 0 0 0 .23 1.605l2.71 5.486a4.07 4.07 0 0 1-.651 4.532l-4.146 4.5a2.588 2.588 0 0 0-.673 1.474l-.687 6.081a4.069 4.069 0 0 1-2.997 3.46l-5.92 1.545a2.593 2.593 0 0 0-1.365.877l-3.864 4.743a4.068 4.068 0 0 1-3.148 1.488Zm-7.869-3.665c.427.001.851.07 1.256.205l5.816 1.901a2.621 2.621 0 0 0 2.833-.831l3.864-4.745a4.02 4.02 0 0 1 2.114-1.366l5.92-1.539a2.623 2.623 0 0 0 1.934-2.23l.686-6.082a4.009 4.009 0 0 1 1.044-2.286l4.145-4.5a2.624 2.624 0 0 0 .42-2.923l-2.709-5.486a4.011 4.011 0 0 1-.358-2.488l1.053-6.03a2.624 2.624 0 0 0-1.231-2.687l-5.246-3.15a4.02 4.02 0 0 1-1.64-1.899l-2.372-5.641a2.624 2.624 0 0 0-2.482-1.596l-6.117.186a4.015 4.015 0 0 1-2.41-.708l-5.045-3.464a2.624 2.624 0 0 0-2.953 0L25.213 6.58a4.017 4.017 0 0 1-2.412.708l-6.116-.186a2.623 2.623 0 0 0-2.483 1.596l-2.371 5.641a4.02 4.02 0 0 1-1.646 1.9l-5.246 3.15a2.625 2.625 0 0 0-1.23 2.686l1.055 6.027a4.02 4.02 0 0 1-.358 2.489l-2.7 5.486A2.624 2.624 0 0 0 2.126 39l4.146 4.5c.583.632.95 1.433 1.044 2.287l.686 6.081A2.622 2.622 0 0 0 9.93 54.1l5.92 1.539a4.02 4.02 0 0 1 2.115 1.359l3.864 4.745a2.62 2.62 0 0 0 2.833.831l5.815-1.901c.406-.132.83-.2 1.257-.198Z" fill="#1E243A"/><path d="M28.762 31.243c1.011-1.061 1.517-2.497 1.517-4.308 0-1.756-.457-3.119-1.371-4.09-.915-.97-2.183-1.455-3.806-1.455-1.696 0-3.051.537-4.066 1.609-1.016 1.072-1.524 2.522-1.524 4.35 0 1.675.478 3.009 1.436 4 .957.993 2.215 1.488 3.776 1.487 1.679 0 3.025-.531 4.038-1.593Zm-5.988-4.044c0-2.074.745-3.11 2.237-3.11 1.378 0 2.067.997 2.067 2.988 0 2.042-.725 3.063-2.175 3.063-1.42 0-2.13-.98-2.13-2.941ZM38.78 32.53c-1.696 0-3.052.535-4.068 1.608-1.016 1.072-1.523 2.522-1.522 4.35 0 1.676.479 3.01 1.436 4 .957.992 2.216 1.487 3.775 1.486 1.685 0 3.032-.536 4.044-1.608 1.01-1.073 1.515-2.513 1.513-4.322 0-1.756-.454-3.115-1.363-4.075-.908-.96-2.18-1.44-3.816-1.44Zm-.2 8.75c-1.436 0-2.156-.98-2.16-2.941 0-2.074.74-3.11 2.22-3.11a1.823 1.823 0 0 1 1.533.78c.388.521.582 1.257.582 2.207 0 2.042-.726 3.063-2.176 3.063ZM36.987 21.7 22.712 43.666h3.738L40.755 21.7h-3.768ZM157.957 135h-32.274a3.041 3.041 0 0 1-3.042-3.042V69.644a12.858 12.858 0 0 1 2.722-7.897l14.062-17.966a3.036 3.036 0 0 1 2.395-1.167 3.04 3.04 0 0 1 2.395 1.167l14.062 17.969a12.858 12.858 0 0 1 2.722 7.897v62.314a3.046 3.046 0 0 1-3.042 3.039Zm-16.136-90.951a1.603 1.603 0 0 0-1.266.615l-14.061 17.97a11.424 11.424 0 0 0-2.417 7.01v62.314a1.605 1.605 0 0 0 1.606 1.606h32.274a1.605 1.605 0 0 0 1.606-1.606V69.644a11.424 11.424 0 0 0-2.416-7.01l-14.062-17.97a1.601 1.601 0 0 0-1.264-.615Z" fill="#1E243A"/><path d="M153.666 127.923h-23.689a.72.72 0 0 1-.718-.718V70.603a.716.716 0 0 1 .718-.718h23.689a.718.718 0 0 1 .718.718v56.602a.718.718 0 0 1-.718.718Zm-22.971-1.436h22.254V71.321h-22.254v55.166Zm11.126-66.015a3.61 3.61 0 0 1-2.554-6.167 3.609 3.609 0 0 1 5.557.547 3.611 3.611 0 0 1-.451 4.56 3.616 3.616 0 0 1-2.552 1.06Zm0-5.79a2.172 2.172 0 0 0-2.011 1.344 2.174 2.174 0 0 0 1.586 2.968 2.174 2.174 0 0 0 2.234-.926c.239-.357.367-.778.367-1.209a2.181 2.181 0 0 0-2.176-2.176Z" fill="#1E243A"/><path d="M135.936 115.948a.72.72 0 0 1-.718-.718V99.537a.72.72 0 0 1 .718-.718.72.72 0 0 1 .718.718v15.693a.72.72 0 0 1-.718.718Zm5.846 0a.72.72 0 0 1-.718-.718V92.768a.716.716 0 0 1 1.225-.508c.135.135.21.317.21.508v22.462a.718.718 0 0 1-.717.718Zm5.948 0a.72.72 0 0 1-.718-.718V82.614a.716.716 0 0 1 1.225-.508.717.717 0 0 1 .211.508v32.616a.718.718 0 0 1-.718.718ZM71.258 135H8.543a.72.72 0 0 1-.718-.718V94.076a.718.718 0 0 1 .718-.718h62.715a.718.718 0 0 1 .718.718v40.206a.72.72 0 0 1-.718.718ZM9.26 133.564h61.28v-38.77H9.26v38.77Z" fill="#1E243A"/><path d="M67.493 131.151H12.308a.717.717 0 0 1-.717-.718V97.926a.718.718 0 0 1 .717-.718h55.185a.718.718 0 0 1 .718.718v32.507a.715.715 0 0 1-.443.663.72.72 0 0 1-.275.055Zm-54.467-1.436h53.75V98.644h-53.75v31.071Z" fill="#1E243A"/><path d="M18.41 121.589a.716.716 0 0 1-.718-.718V97.896a.718.718 0 0 1 1.436 0v22.975a.719.719 0 0 1-.718.718Zm6.154 3.693a.717.717 0 0 1-.718-.718V97.896a.718.718 0 1 1 1.435 0v26.668a.716.716 0 0 1-.717.718Zm6.153-8.616a.72.72 0 0 1-.718-.718V97.896a.718.718 0 0 1 1.436 0v18.052a.72.72 0 0 1-.718.718Zm6.153 9.231a.72.72 0 0 1-.718-.718V97.896a.718.718 0 0 1 1.436 0v27.283a.72.72 0 0 1-.718.718Zm6.05-8.103a.716.716 0 0 1-.717-.718v-19.18a.718.718 0 0 1 1.435 0v19.18a.718.718 0 0 1-.718.718Zm6.154 8.103a.72.72 0 0 1-.718-.718V97.896a.718.718 0 0 1 1.435 0v27.283a.72.72 0 0 1-.717.718Zm6.153 5.231a.72.72 0 0 1-.718-.718V97.896a.718.718 0 0 1 1.436 0v32.514a.72.72 0 0 1-.718.718Zm6.153-7.385a.72.72 0 0 1-.718-.718V97.896a.718.718 0 0 1 1.436 0v25.129a.718.718 0 0 1-.718.718Zm6.153 7.385a.72.72 0 0 1-.718-.718V97.896a.718.718 0 1 1 1.436 0v32.514a.72.72 0 0 1-.718.718Zm-55.276 0a.72.72 0 0 1-.718-.718V97.896a.718.718 0 0 1 1.436 0v32.514a.72.72 0 0 1-.718.718ZM69.38 20.97h-1.231a.718.718 0 0 1 0-1.435h1.23a.718.718 0 0 1 0 1.436Zm66.556 0h-2.666a.719.719 0 1 1 0-1.435h2.666a.72.72 0 0 1 .718.718.72.72 0 0 1-.718.718Zm-7.384 0h-2.666a.719.719 0 1 1 0-1.435h2.666a.719.719 0 1 1 0 1.436Zm-7.384 0h-2.666a.72.72 0 0 1-.718-.717.72.72 0 0 1 .718-.718h2.666a.719.719 0 1 1 0 1.436Zm-7.383 0h-2.667a.716.716 0 0 1-.718-.717.717.717 0 0 1 .718-.718h2.667a.716.716 0 0 1 .717.718.716.716 0 0 1-.717.718Zm-7.384 0h-2.667a.716.716 0 0 1-.717-.717.716.716 0 0 1 .717-.718h2.667a.716.716 0 0 1 .718.718.717.717 0 0 1-.718.718Zm-7.384 0H96.35a.718.718 0 0 1 0-1.435h2.666a.718.718 0 0 1 0 1.436Zm-7.384 0h-2.666a.718.718 0 0 1 0-1.435h2.666a.718.718 0 0 1 0 1.436Zm-7.384 0h-2.666a.718.718 0 0 1 0-1.435h2.666a.718.718 0 0 1 0 1.436Zm-7.383 0h-2.667a.718.718 0 0 1 0-1.435h2.666a.718.718 0 0 1 0 1.436Zm64.916 1.334a.718.718 0 0 1-.718-.718v-.615h-.616a.716.716 0 0 1-.718-.718.717.717 0 0 1 .718-.718h1.334a.716.716 0 0 1 .717.718v1.333a.716.716 0 0 1-.717.718Zm0 9.026a.719.719 0 0 1-.718-.718V27.33a.716.716 0 1 1 1.435 0v3.282a.716.716 0 0 1-.717.718Zm0 7.077a.718.718 0 0 1-.718-.718v-1.23a.716.716 0 0 1 1.225-.508c.135.134.21.317.21.507v1.231a.716.716 0 0 1-.717.718ZM61.277 85.075a.718.718 0 0 1-.717-.718v-4.615a.718.718 0 0 1 1.435 0v4.615a.718.718 0 0 1-.718.718Z" fill="#1E243A"/><path d="M63.636 82.819h-4.615a.718.718 0 0 1 0-1.436h4.615a.718.718 0 0 1 0 1.436Zm61.942-46.976a.716.716 0 0 1-.718-.718V30.51a.717.717 0 0 1 1.436 0v4.615a.72.72 0 0 1-.718.718Z" fill="#1E243A"/><path d="M127.937 33.587h-4.615a.72.72 0 0 1-.718-.718.72.72 0 0 1 .718-.718h4.615a.72.72 0 0 1 .718.718.72.72 0 0 1-.718.718Zm29.945-22.565a.716.716 0 0 1-.718-.718V5.688a.717.717 0 0 1 1.436 0v4.616a.716.716 0 0 1-.718.718Z" fill="#1E243A"/><path d="M160.241 8.766h-4.615a.716.716 0 0 1-.718-.718.717.717 0 0 1 .718-.718h4.615a.72.72 0 0 1 .718.718.72.72 0 0 1-.718.718Zm-53.02 94.669a.718.718 0 0 1-.718-.718v-4.615a.717.717 0 0 1 1.436 0v4.615a.72.72 0 0 1-.718.718Z" fill="#1E243A"/><path d="M109.58 101.178h-4.615a.718.718 0 1 1 0-1.436h4.615a.72.72 0 0 1 .718.718.72.72 0 0 1-.718.718ZM96.342 57.43a1.013 1.013 0 0 1 1-1.038 1.01 1.01 0 0 1 .438 1.937 1 1 0 0 1-.392.079h-.025a1.006 1.006 0 0 1-1.02-.977Zm-3.036-.567a1.024 1.024 0 1 1 1.42-1.476 1.024 1.024 0 0 1-1.42 1.476Zm6.64-.157a1.025 1.025 0 1 1 1.403-1.494 1.025 1.025 0 0 1-1.403 1.494Zm-8.383-3.847a1.036 1.036 0 0 1 1.014-1.048 1.039 1.039 0 0 1 1.038 1.026 1.035 1.035 0 0 1-1.013 1.054h-.013a1.045 1.045 0 0 1-1.026-1.032Zm9.321-.245a1.035 1.035 0 0 1 .274-.733 1.023 1.023 0 0 1 .713-.322 1.016 1.016 0 0 1 1.002 1.371.998.998 0 0 1-.536.572 1.004 1.004 0 0 1-.39.085h-.039a1.012 1.012 0 0 1-1.024-.973Zm-7.67-2.394a1.026 1.026 0 1 1 1.115.219 1.024 1.024 0 0 1-.785.002 1.018 1.018 0 0 1-.33-.221Zm6.492-.135a1.026 1.026 0 1 1 1.387-1.512 1.026 1.026 0 0 1-1.387 1.512Zm-3.48-1.981a1.026 1.026 0 1 1 2.05 0 1.026 1.026 0 0 1-2.05 0Zm4.731-37.752a1.023 1.023 0 0 1 1-1.04 1.016 1.016 0 0 1 .962.596 1.015 1.015 0 0 1-.194 1.118 1.006 1.006 0 0 1-.722.304h-.025a1.006 1.006 0 0 1-1.021-.978Zm-3.036-.567a1.025 1.025 0 1 1 1.42-1.477 1.025 1.025 0 0 1-1.42 1.477Zm6.64-.157a1.039 1.039 0 0 1-.323-.716 1.024 1.024 0 0 1 .994-1.057 1.023 1.023 0 0 1 .967.603 1.03 1.03 0 0 1-.188 1.125 1.03 1.03 0 0 1-.748.323c-.261 0-.512-.1-.702-.278Zm-8.383-3.837a1.01 1.01 0 0 1 1.013-1.054 1.037 1.037 0 0 1 1.037 1.025 1.033 1.033 0 0 1-1.012 1.053h-.013c-.56.002-1.017-.511-1.025-1.024Zm9.321-.255a1.016 1.016 0 0 1 .987-1.055 1.015 1.015 0 0 1 1.062.976 1.003 1.003 0 0 1-.986 1.052h-.039a1.012 1.012 0 0 1-1.024-.973Zm-7.67-2.394a1.026 1.026 0 1 1 1.115.219 1.026 1.026 0 0 1-.785.002 1.017 1.017 0 0 1-.33-.221Zm6.492-.136a1.015 1.015 0 0 1-.331-.711 1.025 1.025 0 1 1 .331.711Zm-3.481-1.98A1.024 1.024 0 0 1 101.866 0a1.025 1.025 0 1 1-1.026 1.026ZM18.607 83.38a1.016 1.016 0 0 1 1-1.04 1.01 1.01 0 0 1 1.05.983 1.001 1.001 0 0 1-1.004 1.034h-.025a1.004 1.004 0 0 1-1.02-.977Zm-3.036-.561a1.026 1.026 0 1 1 .711.284.96.96 0 0 1-.711-.284Zm6.64-.163a1.025 1.025 0 1 1 1.403-1.495 1.025 1.025 0 0 1-1.403 1.495Zm-8.383-3.848a1.036 1.036 0 0 1 1.014-1.048 1.039 1.039 0 0 1 1.037 1.026 1.035 1.035 0 0 1-1.012 1.054h-.013a1.045 1.045 0 0 1-1.026-1.032Zm9.321-.23a1.026 1.026 0 1 1 1.063.987h-.04a1.026 1.026 0 0 1-1.023-.986Zm-7.67-2.409a1.026 1.026 0 1 1 1.115.22 1.026 1.026 0 0 1-.786.002 1.018 1.018 0 0 1-.33-.222Zm6.492-.135a1.025 1.025 0 1 1 1.385-1.51 1.025 1.025 0 0 1-1.385 1.51Zm-3.48-1.98a1.026 1.026 0 1 1 2.05 0 1.026 1.026 0 0 1-2.05 0Zm73.237 51.789a1.021 1.021 0 0 1 .61-.956c.123-.053.255-.082.39-.084a1.01 1.01 0 0 1 1.05.983 1 1 0 0 1-1.005 1.034h-.025a1.006 1.006 0 0 1-1.02-.977Zm-3.037-.567a1.027 1.027 0 0 1 .3-1.679 1.02 1.02 0 0 1 1.35.53 1.031 1.031 0 0 1-.201 1.122 1.03 1.03 0 0 1-.738.314c-.266 0-.52-.103-.711-.287Zm6.64-.157a1.033 1.033 0 0 1-.323-.716 1.027 1.027 0 1 1 .323.716Zm-8.383-3.848a1.034 1.034 0 0 1 1.014-1.048A1.038 1.038 0 0 1 89 121.249a1.033 1.033 0 0 1-1.013 1.054h-.013a1.046 1.046 0 0 1-1.026-1.032Zm9.322-.245a1.011 1.011 0 0 1 .273-.732 1.014 1.014 0 0 1 .713-.322 1.016 1.016 0 0 1 1.063.975 1 1 0 0 1-.597.967 1.01 1.01 0 0 1-.39.086h-.038a1.014 1.014 0 0 1-1.024-.974Zm-7.671-2.394a1.025 1.025 0 1 1 1.45-.008 1.014 1.014 0 0 1-.73.308 1.022 1.022 0 0 1-.72-.3Zm6.492-.135a1.028 1.028 0 0 1-.062-1.449 1.026 1.026 0 1 1 .063 1.449Zm-3.48-1.981a1.025 1.025 0 1 1 2.049 0 1.025 1.025 0 0 1-2.05 0Z" fill="#1E243A"/></g><defs><clipPath id="a"><path fill="#fff" d="M0 0h161v135H0z"/></clipPath></defs></svg>